<svg width="24" height="24" viewBox="0 0 24 24" fill="none" xmlns="http://www.w3.org/2000/svg">
<path d="M12 22C17.5228 22 22 17.5228 22 12C22 6.47715 17.5228 2 12 2C6.47715 2 2 6.47715 2 12C2 17.5228 6.47715 22 12 22Z" fill="#421987"/>
<path d="M12 9.99999H17C17.2652 9.99999 17.5196 10.1053 17.7071 10.2929C17.8946 10.4804 18 10.7348 18 11V13C18 13.2652 17.8946 13.5196 17.7071 13.7071C17.5196 13.8946 17.2652 14 17 14H12V16C11.9973 16.1957 11.9371 16.3863 11.8271 16.5482C11.717 16.7101 11.5619 16.8361 11.3809 16.9106C11.1998 16.9852 11.001 17.0049 10.8088 16.9675C10.6167 16.93 10.4398 16.837 10.3 16.7L6.3 12.7C6.11678 12.5131 6.01414 12.2617 6.01414 12C6.01414 11.7382 6.11678 11.4869 6.3 11.3L10.3 7.29999C10.4398 7.16295 10.6167 7.06994 10.8088 7.0325C11.001 6.99506 11.1998 7.01483 11.3809 7.08936C11.5619 7.16389 11.717 7.2899 11.8271 7.45178C11.9371 7.61365 11.9973 7.80427 12 7.99999V9.99999Z" fill="#EAE2F8"/>
</svg>
