<svg width="128" height="128" viewBox="0 0 128 128" fill="none" xmlns="http://www.w3.org/2000/svg">
<rect width="128" height="128" rx="10" fill="#CFBCF2"/>
<path d="M44.5 15.5H64V35C64 38.575 66.925 41.5 70.5 41.5H90V74C90 75.7239 89.3152 77.3772 88.0962 78.5962C86.8772 79.8152 85.2239 80.5 83.5 80.5H44.5C42.7761 80.5 41.1228 79.8152 39.9038 78.5962C38.6848 77.3772 38 75.7239 38 74V22C38 18.425 40.925 15.5 44.5 15.5Z" fill="#A081D9"/>
<path d="M67.25 57.75H73.75C74.612 57.75 75.4386 58.0924 76.0481 58.7019C76.6576 59.3114 77 60.138 77 61C77 61.862 76.6576 62.6886 76.0481 63.2981C75.4386 63.9076 74.612 64.25 73.75 64.25H67.25V70.75C67.25 71.612 66.9076 72.4386 66.2981 73.0481C65.6886 73.6576 64.862 74 64 74C63.138 74 62.3114 73.6576 61.7019 73.0481C61.0924 72.4386 60.75 71.612 60.75 70.75V64.25H54.25C53.388 64.25 52.5614 63.9076 51.9519 63.2981C51.3424 62.6886 51 61.862 51 61C51 60.138 51.3424 59.3114 51.9519 58.7019C52.5614 58.0924 53.388 57.75 54.25 57.75H60.75V51.25C60.75 50.388 61.0924 49.5614 61.7019 48.9519C62.3114 48.3424 63.138 48 64 48C64.862 48 65.6886 48.3424 66.2981 48.9519C66.9076 49.5614 67.25 50.388 67.25 51.25V57.75Z" fill="#EAE2F8"/>
<path d="M70.5 15.5L90 35H70.5V15.5Z" fill="#34126F"/>
<path d="M25.6914 109.842C25.5684 110.895 25.1787 111.708 24.5225 112.282C23.8708 112.852 23.0026 113.137 21.918 113.137C20.7422 113.137 19.7988 112.715 19.0879 111.872C18.3815 111.029 18.0283 109.901 18.0283 108.488V107.531C18.0283 106.606 18.1924 105.793 18.5205 105.091C18.8532 104.389 19.3226 103.851 19.9287 103.478C20.5348 103.099 21.2367 102.91 22.0342 102.91C23.0915 102.91 23.9391 103.206 24.5771 103.799C25.2152 104.387 25.5866 105.202 25.6914 106.246H24.3721C24.2581 105.453 24.0098 104.879 23.627 104.523C23.2487 104.168 22.7178 103.99 22.0342 103.99C21.1956 103.99 20.5371 104.3 20.0586 104.92C19.5846 105.54 19.3477 106.422 19.3477 107.565V108.529C19.3477 109.609 19.5732 110.468 20.0244 111.106C20.4756 111.744 21.1068 112.063 21.918 112.063C22.6471 112.063 23.2054 111.899 23.5928 111.571C23.9847 111.239 24.2445 110.662 24.3721 109.842H25.6914ZM28.665 113H27.4004V102.5H28.665V113ZM32.0693 113H30.8047V105.604H32.0693V113ZM30.7021 103.642C30.7021 103.437 30.7637 103.263 30.8867 103.122C31.0143 102.981 31.2012 102.91 31.4473 102.91C31.6934 102.91 31.8802 102.981 32.0078 103.122C32.1354 103.263 32.1992 103.437 32.1992 103.642C32.1992 103.847 32.1354 104.018 32.0078 104.154C31.8802 104.291 31.6934 104.359 31.4473 104.359C31.2012 104.359 31.0143 104.291 30.8867 104.154C30.7637 104.018 30.7021 103.847 30.7021 103.642ZM37.0664 112.104C37.5176 112.104 37.9118 111.968 38.249 111.694C38.5863 111.421 38.7731 111.079 38.8096 110.669H40.0059C39.9831 111.093 39.8372 111.496 39.5684 111.879C39.2995 112.262 38.9395 112.567 38.4883 112.795C38.0417 113.023 37.5677 113.137 37.0664 113.137C36.0592 113.137 35.2572 112.802 34.6602 112.132C34.0677 111.457 33.7715 110.537 33.7715 109.37V109.158C33.7715 108.438 33.9036 107.798 34.168 107.237C34.4323 106.677 34.8105 106.242 35.3027 105.932C35.7995 105.622 36.3851 105.467 37.0596 105.467C37.889 105.467 38.5771 105.715 39.124 106.212C39.6755 106.709 39.9694 107.354 40.0059 108.146H38.8096C38.7731 107.668 38.5908 107.276 38.2627 106.971C37.9391 106.661 37.5381 106.506 37.0596 106.506C36.417 106.506 35.918 106.738 35.5625 107.203C35.2116 107.663 35.0361 108.331 35.0361 109.206V109.445C35.0361 110.298 35.2116 110.954 35.5625 111.414C35.9134 111.874 36.4147 112.104 37.0664 112.104ZM43.4922 109.575L42.6992 110.402V113H41.4346V102.5H42.6992V108.851L43.376 108.037L45.6797 105.604H47.2178L44.3398 108.693L47.5527 113H46.0693L43.4922 109.575ZM53.7119 103.812V105.604H55.0928V106.581H53.7119V111.168C53.7119 111.464 53.7734 111.688 53.8965 111.838C54.0195 111.984 54.2292 112.057 54.5254 112.057C54.6712 112.057 54.8717 112.029 55.127 111.975V113C54.7943 113.091 54.4707 113.137 54.1562 113.137C53.5911 113.137 53.165 112.966 52.8779 112.624C52.5908 112.282 52.4473 111.797 52.4473 111.168V106.581H51.1006V105.604H52.4473V103.812H53.7119ZM56.1045 109.233C56.1045 108.509 56.2458 107.857 56.5283 107.278C56.8154 106.7 57.2119 106.253 57.7178 105.938C58.2282 105.624 58.8092 105.467 59.4609 105.467C60.4681 105.467 61.2816 105.815 61.9014 106.513C62.5257 107.21 62.8379 108.137 62.8379 109.295V109.384C62.8379 110.104 62.6989 110.751 62.4209 111.325C62.1475 111.895 61.7533 112.339 61.2383 112.658C60.7279 112.977 60.14 113.137 59.4746 113.137C58.472 113.137 57.6585 112.788 57.0342 112.091C56.4144 111.394 56.1045 110.471 56.1045 109.322V109.233ZM57.376 109.384C57.376 110.204 57.5651 110.863 57.9434 111.359C58.3262 111.856 58.8366 112.104 59.4746 112.104C60.1172 112.104 60.6276 111.854 61.0059 111.353C61.3841 110.847 61.5732 110.14 61.5732 109.233C61.5732 108.422 61.3796 107.766 60.9922 107.265C60.6094 106.759 60.099 106.506 59.4609 106.506C58.8366 106.506 58.333 106.754 57.9502 107.251C57.5674 107.748 57.376 108.459 57.376 109.384ZM75.1016 103.047V109.814C75.097 110.753 74.8008 111.521 74.2129 112.118C73.6296 112.715 72.8366 113.05 71.834 113.123L71.4854 113.137C70.3962 113.137 69.528 112.843 68.8809 112.255C68.2337 111.667 67.9056 110.858 67.8965 109.828V103.047H69.1953V109.787C69.1953 110.507 69.3936 111.068 69.79 111.469C70.1865 111.865 70.7516 112.063 71.4854 112.063C72.2282 112.063 72.7956 111.865 73.1875 111.469C73.584 111.072 73.7822 110.514 73.7822 109.794V103.047H75.1016ZM83.2227 109.384C83.2227 110.509 82.9652 111.416 82.4502 112.104C81.9352 112.793 81.238 113.137 80.3584 113.137C79.4606 113.137 78.7542 112.852 78.2393 112.282V115.844H76.9746V105.604H78.1299L78.1914 106.424C78.7064 105.786 79.4219 105.467 80.3379 105.467C81.2266 105.467 81.9284 105.802 82.4434 106.472C82.9629 107.142 83.2227 108.074 83.2227 109.268V109.384ZM81.958 109.24C81.958 108.406 81.7803 107.748 81.4248 107.265C81.0693 106.782 80.5817 106.54 79.9619 106.54C79.1963 106.54 78.6221 106.88 78.2393 107.559V111.093C78.6175 111.767 79.1963 112.104 79.9756 112.104C80.5817 112.104 81.0625 111.865 81.418 111.387C81.778 110.904 81.958 110.188 81.958 109.24ZM86.21 113H84.9453V102.5H86.21V113ZM87.9053 109.233C87.9053 108.509 88.0465 107.857 88.3291 107.278C88.6162 106.7 89.0127 106.253 89.5186 105.938C90.029 105.624 90.61 105.467 91.2617 105.467C92.2689 105.467 93.0824 105.815 93.7021 106.513C94.3265 107.21 94.6387 108.137 94.6387 109.295V109.384C94.6387 110.104 94.4997 110.751 94.2217 111.325C93.9482 111.895 93.554 112.339 93.0391 112.658C92.5286 112.977 91.9408 113.137 91.2754 113.137C90.2728 113.137 89.4593 112.788 88.835 112.091C88.2152 111.394 87.9053 110.471 87.9053 109.322V109.233ZM89.1768 109.384C89.1768 110.204 89.3659 110.863 89.7441 111.359C90.127 111.856 90.6374 112.104 91.2754 112.104C91.918 112.104 92.4284 111.854 92.8066 111.353C93.1849 110.847 93.374 110.14 93.374 109.233C93.374 108.422 93.1803 107.766 92.793 107.265C92.4102 106.759 91.8997 106.506 91.2617 106.506C90.6374 106.506 90.1338 106.754 89.751 107.251C89.3682 107.748 89.1768 108.459 89.1768 109.384ZM100.791 113C100.718 112.854 100.659 112.594 100.613 112.221C100.025 112.831 99.3236 113.137 98.5078 113.137C97.7786 113.137 97.1794 112.932 96.71 112.521C96.2451 112.107 96.0127 111.583 96.0127 110.949C96.0127 110.179 96.3044 109.582 96.8877 109.158C97.4756 108.73 98.3005 108.516 99.3623 108.516H100.593V107.935C100.593 107.493 100.461 107.142 100.196 106.882C99.932 106.618 99.5423 106.485 99.0273 106.485C98.5762 106.485 98.1979 106.599 97.8926 106.827C97.5872 107.055 97.4346 107.331 97.4346 107.654H96.1631C96.1631 107.285 96.293 106.93 96.5527 106.588C96.8171 106.242 97.1725 105.968 97.6191 105.768C98.0703 105.567 98.5648 105.467 99.1025 105.467C99.9548 105.467 100.622 105.681 101.105 106.109C101.589 106.533 101.839 107.119 101.857 107.866V111.271C101.857 111.95 101.944 112.49 102.117 112.891V113H100.791ZM98.6924 112.036C99.0889 112.036 99.4648 111.934 99.8203 111.729C100.176 111.523 100.433 111.257 100.593 110.929V109.411H99.6016C98.0521 109.411 97.2773 109.865 97.2773 110.771C97.2773 111.168 97.4095 111.478 97.6738 111.701C97.9382 111.924 98.2777 112.036 98.6924 112.036ZM103.532 109.24C103.532 108.105 103.801 107.194 104.339 106.506C104.877 105.813 105.581 105.467 106.451 105.467C107.317 105.467 108.003 105.763 108.509 106.355V102.5H109.773V113H108.611L108.55 112.207C108.044 112.827 107.34 113.137 106.438 113.137C105.581 113.137 104.881 112.786 104.339 112.084C103.801 111.382 103.532 110.466 103.532 109.336V109.24ZM104.797 109.384C104.797 110.222 104.97 110.879 105.316 111.353C105.663 111.826 106.141 112.063 106.752 112.063C107.554 112.063 108.14 111.703 108.509 110.983V107.586C108.131 106.889 107.549 106.54 106.766 106.54C106.146 106.54 105.663 106.779 105.316 107.258C104.97 107.736 104.797 108.445 104.797 109.384Z" fill="#27241D"/>
</svg>
