<svg width="24" height="24" viewBox="0 0 24 24" fill="none" xmlns="http://www.w3.org/2000/svg">
<path d="M12 22C17.5228 22 22 17.5228 22 12C22 6.47715 17.5228 2 12 2C6.47715 2 2 6.47715 2 12C2 17.5228 6.47715 22 12 22Z" fill="#421987"/>
<path d="M8.52 7.11C9.24683 6.58872 10.0813 6.23713 10.9621 6.08111C11.8428 5.9251 12.7473 5.96864 13.609 6.20852C14.4706 6.44841 15.2675 6.87853 15.9409 7.46721C16.6143 8.05589 17.1471 8.78813 17.5 9.61C17.5609 9.73135 17.5964 9.86383 17.6044 9.99935C17.6124 10.1349 17.5927 10.2706 17.5465 10.3983C17.5004 10.5259 17.4287 10.6429 17.3359 10.742C17.2431 10.841 17.131 10.9202 17.0067 10.9745C16.8823 11.0289 16.7481 11.0574 16.6124 11.0582C16.4766 11.0591 16.3421 11.0323 16.217 10.9795C16.092 10.9267 15.979 10.8489 15.8849 10.751C15.7909 10.6531 15.7178 10.5371 15.67 10.41C15.445 9.8896 15.1119 9.42297 14.6929 9.04107C14.2738 8.65916 13.7784 8.37071 13.2394 8.19483C12.7004 8.01894 12.1301 7.95965 11.5665 8.02088C11.0028 8.08212 10.4587 8.26248 9.97 8.55L10.71 9.29C10.851 9.42987 10.9472 9.60857 10.9863 9.80332C11.0253 9.99807 11.0055 10.2 10.9294 10.3835C10.8532 10.5669 10.7241 10.7235 10.5586 10.8333C10.3931 10.9431 10.1986 11.0012 10 11H7C6.73478 11 6.48043 10.8946 6.29289 10.7071C6.10536 10.5196 6 10.2652 6 10V7C6.00275 6.80427 6.06288 6.61366 6.17294 6.45178C6.283 6.28991 6.43815 6.1639 6.61915 6.08937C6.80015 6.01484 6.99905 5.99507 7.19118 6.03251C7.38331 6.06995 7.56023 6.16296 7.7 6.3L8.52 7.11V7.11ZM14.03 15.45L13.29 14.71C13.149 14.5701 13.0528 14.3914 13.0137 14.1967C12.9747 14.0019 12.9945 13.8 13.0706 13.6165C13.1468 13.4331 13.2759 13.2765 13.4414 13.1667C13.6069 13.0569 13.8014 12.9988 14 13H17C17.2652 13 17.5196 13.1054 17.7071 13.2929C17.8946 13.4804 18 13.7348 18 14V17C17.9973 17.1957 17.9371 17.3863 17.8271 17.5482C17.717 17.7101 17.5618 17.8361 17.3808 17.9106C17.1998 17.9852 17.001 18.0049 16.8088 17.9675C16.6167 17.93 16.4398 17.837 16.3 17.7L15.48 16.89C14.7538 17.4116 13.9199 17.7636 13.0397 17.9204C12.1594 18.0771 11.2553 18.0344 10.3937 17.7955C9.53214 17.5566 8.7351 17.1275 8.06126 16.5399C7.38741 15.9523 6.8539 15.221 6.5 14.4C6.43914 14.2786 6.40364 14.1462 6.39564 14.0106C6.38764 13.8751 6.40732 13.7394 6.45348 13.6117C6.49963 13.4841 6.57131 13.3671 6.66412 13.268C6.75694 13.169 6.86895 13.0898 6.99334 13.0355C7.11773 12.9811 7.2519 12.9526 7.38765 12.9518C7.52341 12.9509 7.65791 12.9777 7.78297 13.0305C7.90803 13.0833 8.02103 13.1611 8.11508 13.259C8.20912 13.3569 8.28225 13.4729 8.33 13.6C8.55599 14.1196 8.88977 14.5852 9.30924 14.966C9.72871 15.3469 10.2243 15.6343 10.7632 15.8092C11.3021 15.9841 11.872 16.0425 12.4352 15.9806C12.9984 15.9187 13.542 15.7378 14.03 15.45V15.45Z" fill="#EAE2F8"/>
</svg>
