<svg width="24" height="24" viewBox="0 0 24 24" fill="none" xmlns="http://www.w3.org/2000/svg">
<path d="M12 22C17.5228 22 22 17.5228 22 12C22 6.47715 17.5228 2 12 2C6.47715 2 2 6.47715 2 12C2 17.5228 6.47715 22 12 22Z" fill="#421987"/>
<path d="M12 14H7C6.73478 14 6.48043 13.8946 6.29289 13.7071C6.10536 13.5196 6 13.2652 6 13V11C6 10.7348 6.10536 10.4804 6.29289 10.2929C6.48043 10.1053 6.73478 9.99999 7 9.99999H12V7.99999C12.0027 7.80427 12.0629 7.61365 12.1729 7.45178C12.283 7.2899 12.4381 7.16389 12.6192 7.08936C12.8002 7.01483 12.999 6.99506 13.1912 7.0325C13.3833 7.06994 13.5602 7.16295 13.7 7.29999L17.7 11.3C17.8832 11.4869 17.9859 11.7382 17.9859 12C17.9859 12.2617 17.8832 12.5131 17.7 12.7L13.7 16.7C13.5602 16.837 13.3833 16.93 13.1912 16.9675C12.999 17.0049 12.8002 16.9852 12.6192 16.9106C12.4381 16.8361 12.283 16.7101 12.1729 16.5482C12.0629 16.3863 12.0027 16.1957 12 16V14Z" fill="#EAE2F8"/>
</svg>
